<svg width="300" height="68" xmlns="http://www.w3.org/2000/svg"><g fill="#39014A" fill-rule="nonzero"><path d="M299.974 33.229v2.893h-27.191c.257 4.07 1.478 7.178 3.664 9.32 2.207 2.122 5.27 3.182 9.192 3.182a25.83 25.83 0 006.589-.835c2.142-.558 4.264-1.393 6.363-2.507v5.592a35.463 35.463 0 01-6.524 2.057 32.678 32.678 0 01-6.782.707c-5.742 0-10.295-1.671-13.66-5.014-3.342-3.342-5.013-7.863-5.013-13.563 0-5.892 1.585-10.564 4.757-14.013 3.192-3.471 7.488-5.207 12.888-5.207 4.842 0 8.667 1.564 11.474 4.692 2.828 3.107 4.243 7.34 4.243 12.696zm-5.914-1.736c-.043-3.235-.954-5.817-2.732-7.745-1.757-1.929-4.093-2.893-7.007-2.893-3.3 0-5.946.932-7.939 2.796-1.97 1.864-3.106 4.49-3.406 7.875l21.084-.033zM262.554 18.09v5.529c-1.67-.921-3.353-1.607-5.046-2.057a18.622 18.622 0 00-5.078-.707c-3.835 0-6.814 1.221-8.935 3.664-2.121 2.421-3.182 5.828-3.182 10.22 0 4.393 1.06 7.81 3.182 10.253 2.121 2.422 5.1 3.632 8.935 3.632 1.714 0 3.407-.225 5.078-.675 1.693-.471 3.375-1.167 5.046-2.089v5.464a24.23 24.23 0 01-5.142 1.736c-1.757.385-3.632.578-5.625.578-5.42 0-9.727-1.703-12.92-5.11-3.193-3.407-4.789-8.003-4.789-13.788 0-5.871 1.607-10.489 4.821-13.853 3.236-3.364 7.66-5.046 13.274-5.046 1.821 0 3.6.193 5.335.578 1.736.365 3.418.922 5.046 1.672zM214.5 34.611c-4.778 0-8.088.546-9.93 1.64-1.843 1.092-2.765 2.956-2.765 5.592 0 2.1.686 3.77 2.057 5.014 1.393 1.22 3.278 1.832 5.657 1.832 3.278 0 5.903-1.158 7.874-3.472 1.993-2.335 2.99-5.431 2.99-9.288V34.61H214.5zm11.796-2.443v20.538h-5.914v-5.464c-1.35 2.186-3.032 3.803-5.046 4.853-2.014 1.029-4.478 1.543-7.392 1.543-3.685 0-6.62-1.028-8.807-3.085-2.164-2.079-3.246-4.854-3.246-8.325 0-4.05 1.35-7.103 4.05-9.16 2.721-2.057 6.77-3.085 12.15-3.085h8.291v-.579c0-2.721-.9-4.82-2.7-6.3-1.778-1.5-4.285-2.25-7.52-2.25-2.057 0-4.06.247-6.01.74a23.825 23.825 0 00-5.625 2.218v-5.464c2.164-.836 4.264-1.457 6.3-1.864a28.828 28.828 0 015.945-.643c5.207 0 9.096 1.35 11.667 4.05 2.572 2.7 3.857 6.792 3.857 12.277zM178.04 30.208c1.393.471 2.743 1.478 4.05 3.021 1.328 1.543 2.657 3.664 3.985 6.364l6.589 13.113h-6.974l-6.14-12.31c-1.585-3.214-3.128-5.346-4.628-6.396-1.478-1.05-3.503-1.575-6.074-1.575h-7.071v20.281h-6.492V4.72h14.656c5.485 0 9.578 1.147 12.277 3.44 2.7 2.292 4.05 5.753 4.05 10.38 0 3.022-.707 5.529-2.121 7.522-1.393 1.992-3.429 3.374-6.107 4.146zm-16.263-20.152V27.09h8.164c3.128 0 5.485-.718 7.07-2.153 1.608-1.457 2.411-3.59 2.411-6.396 0-2.807-.803-4.918-2.41-6.332-1.586-1.436-3.943-2.153-7.071-2.153h-8.164zM135.392 56.669c-1.672 4.285-3.3 7.081-4.886 8.388-1.585 1.308-3.707 1.961-6.364 1.961h-4.724v-4.95h3.47c1.63 0 2.894-.385 3.794-1.157.9-.771 1.896-2.592 2.989-5.464l1.06-2.7-14.56-35.418h6.268l11.25 28.155 11.248-28.155h6.268l-15.813 39.34zM68.188 4.72h9.674l12.246 32.655 12.31-32.655h9.674v47.986h-6.332V10.57L93.386 43.482H86.86L74.487 10.57v42.136h-6.3z"/><ellipse cx="29.866" cy="4.71" rx="4.597" ry="4.71"/><path d="M31.182 31.866s.003-.005.003-.01c.896-.918 2.529-4.036 1.654-4.832 0 0-24.375-19.928-25.108-19.177-.733.75 18.645 25.796 18.645 25.796.784.892 3.913-.864 4.806-1.777z" fill-opacity=".941"/><path d="M25.273 30.592c-.004 2.599 2.05 4.71 4.586 4.712 2.536 0 4.595-2.106 4.6-4.7.004-2.603-2.052-4.71-4.586-4.71-2.539-.004-4.597 2.095-4.6 4.698z"/><path d="M39.715 4.232c-1.58 2.716.91 4.38 1.66 4.801 7.453 4.18 12.528 12.263 12.528 21.566 0 13.58-10.781 24.626-24.037 24.626-13.256 0-24.04-11.045-24.04-24.626 0-3.12.581-6.105 1.624-8.85.136-.355 1.445-2.718-1.118-4.37-1.756-1.13-3.474.146-3.819.951A31.026 31.026 0 000 30.6c0 16.898 13.37 30.596 29.866 30.596 16.495 0 29.866-13.698 29.866-30.597 0-12.034-6.798-22.425-16.663-27.41-.207-.106-2.25-.857-3.354 1.043z"/></g></svg>